<svg width="30" height="20" viewBox="0 0 30 20" fill="none" xmlns="http://www.w3.org/2000/svg">
<path d="M23.9992 7.99822C23.5447 8.00024 23.0919 8.05391 22.6496 8.15819L20.5003 2.99933H22.9995V3.99911H24.9988V1.99956C24.9988 1.7344 24.8935 1.4801 24.706 1.29261C24.5186 1.10511 24.2643 0.999778 23.9992 0.999778H19.0008C18.837 1.00059 18.676 1.04162 18.5318 1.11924C18.3877 1.19687 18.2648 1.30872 18.174 1.44497C18.0831 1.58121 18.0272 1.73769 18.011 1.90063C17.9948 2.06358 18.0188 2.22801 18.0811 2.37947L18.7508 3.99911H12.003L11.3832 1.99956H13.0027V0H7.00459V1.99956H9.26387L10.0736 4.61897L8.00427 8.34815C6.84429 7.93641 5.58573 7.89156 4.39938 8.21966C3.21303 8.54777 2.15634 9.23295 1.37269 10.1822C0.589041 11.1315 0.116385 12.2989 0.0188609 13.526C-0.0786637 14.7532 0.203665 15.9806 0.827535 17.0418C1.4514 18.1029 2.38661 18.9464 3.50624 19.4578C4.62587 19.9692 5.87571 20.1238 7.08617 19.9005C8.29662 19.6772 9.40907 19.0868 10.2726 18.2096C11.1361 17.3323 11.7088 16.2106 11.913 14.9967H14.0024C14.167 14.9958 14.3289 14.9543 14.4737 14.8758C14.6184 14.7973 14.7415 14.6843 14.8321 14.5468L19.9505 6.86847L20.8102 8.91802C19.5862 9.68734 18.6813 10.8729 18.2618 12.2564C17.8424 13.64 17.9367 15.1285 18.5274 16.4481C19.1181 17.7676 20.1655 18.8294 21.4768 19.4381C22.7881 20.0467 24.275 20.1613 25.664 19.7606C27.053 19.36 28.2506 18.4712 29.0364 17.2577C29.8222 16.0441 30.1434 14.5876 29.9408 13.1561C29.7382 11.7246 29.0254 10.4145 27.9337 9.46679C26.842 8.51907 25.4448 7.99756 23.9992 7.99822V7.99822ZM12.5828 5.99867H18.131L14.3323 11.6874L12.5828 5.99867ZM10.8834 7.26839L12.6528 12.9971H11.913C11.6658 11.5461 10.8937 10.2366 9.74372 9.31793L10.8834 7.26839ZM8.75403 11.1075C9.29262 11.6218 9.67693 12.2762 9.86368 12.9971H7.70437L8.75403 11.1075ZM6.00491 17.996C4.94439 17.996 3.92729 17.5747 3.17739 16.8247C2.42748 16.0747 2.00619 15.0575 2.00619 13.9969C2.00619 12.9363 2.42748 11.9191 3.17739 11.1691C3.92729 10.4191 4.94439 9.99778 6.00491 9.99778C6.34271 10.002 6.67862 10.049 7.00459 10.1377L5.13519 13.507C5.04975 13.659 5.00556 13.8307 5.00699 14.0051C5.00842 14.1795 5.05542 14.3504 5.14334 14.501C5.23126 14.6516 5.35703 14.7766 5.50817 14.8635C5.6593 14.9505 5.83055 14.9964 6.00491 14.9967H9.86368C9.64261 15.853 9.14398 16.6118 8.44577 17.1545C7.74757 17.6972 6.88919 17.9931 6.00491 17.996V17.996ZM23.9992 17.996C23.1666 17.9899 22.3568 17.7241 21.6826 17.2356C21.0084 16.7471 20.5034 16.0604 20.2382 15.2711C19.9729 14.4819 19.9606 13.6296 20.2029 12.833C20.4452 12.0364 20.9301 11.3354 21.5899 10.8276L23.0695 14.3868L24.9189 13.617L23.4393 10.0578C23.6243 10.0246 23.8114 10.0046 23.9992 9.99778C25.0597 9.99778 26.0768 10.4191 26.8267 11.1691C27.5766 11.9191 27.9979 12.9363 27.9979 13.9969C27.9979 15.0575 27.5766 16.0747 26.8267 16.8247C26.0768 17.5747 25.0597 17.996 23.9992 17.996Z" fill="#2B6BF3"/>
</svg>
