<svg width="17" height="24" viewBox="0 0 17 24" fill="none" xmlns="http://www.w3.org/2000/svg">
<path d="M7 0C5.34368 0 3.99996 1.34277 3.99996 2.99993C3.99996 4.65618 5.34368 5.99985 7 5.99985C8.65632 5.99985 10 4.65618 10 2.99993C10 1.34277 8.65632 0 7 0ZM7 3.9998C6.44709 3.9998 6.00009 3.55161 6.00009 2.99993C6.00009 2.44704 6.44709 2.00005 7 2.00005C7.55291 2.00005 7.99991 2.44734 7.99991 2.99993C7.99991 3.55161 7.55291 3.9998 7 3.9998Z" fill="#2B6BF3"/>
<path d="M6.7342 18.6835L1.41392 24L0 22.5858L5.32028 17.2679L6.7342 18.6835Z" fill="#2B6BF3"/>
<path d="M1.99983 15.0002H3.99996V12.8289L6.00009 10.8279V15.8282L10 19.8283V24H12.0002V19.9999C12.0002 19.4503 11.6816 18.6814 11.2931 18.2932L7.99991 14.9981V7.9999H6.00009L2.70694 11.2926C2.31813 11.6811 1.99983 12.45 1.99983 12.9996V15.0002Z" fill="#2B6BF3"/>
<path d="M11 14H16L17 12H11.5L9 9V11.5L11 14Z" fill="#2B6BF3"/>
</svg>
